<!DOCTYPE svg PUBLIC "-//W3C//DTD SVG 1.1//EN" "http://www.w3.org/Graphics/SVG/1.1/DTD/svg11.dtd">
<!-- Uploaded to: SVG Repo, www.svgrepo.com, Transformed by: SVG Repo Mixer Tools -->
<svg width="148px" height="148px" viewBox="0 0 16 16" xmlns="http://www.w3.org/2000/svg" fill="#1CABCD" class="bi bi-grid-3x3-gap" stroke="#1CABCD" stroke-width="0.00016">
<g id="SVGRepo_bgCarrier" stroke-width="0"/>
<g id="SVGRepo_tracerCarrier" stroke-linecap="round" stroke-linejoin="round" stroke="#CCCCCC" stroke-width="0.096"/>
<g id="SVGRepo_iconCarrier"> <path d="M4 2v2H2V2h2zm1 12v-2a1 1 0 0 0-1-1H2a1 1 0 0 0-1 1v2a1 1 0 0 0 1 1h2a1 1 0 0 0 1-1zm0-5V7a1 1 0 0 0-1-1H2a1 1 0 0 0-1 1v2a1 1 0 0 0 1 1h2a1 1 0 0 0 1-1zm0-5V2a1 1 0 0 0-1-1H2a1 1 0 0 0-1 1v2a1 1 0 0 0 1 1h2a1 1 0 0 0 1-1zm5 10v-2a1 1 0 0 0-1-1H7a1 1 0 0 0-1 1v2a1 1 0 0 0 1 1h2a1 1 0 0 0 1-1zm0-5V7a1 1 0 0 0-1-1H7a1 1 0 0 0-1 1v2a1 1 0 0 0 1 1h2a1 1 0 0 0 1-1zm0-5V2a1 1 0 0 0-1-1H7a1 1 0 0 0-1 1v2a1 1 0 0 0 1 1h2a1 1 0 0 0 1-1zM9 2v2H7V2h2zm5 0v2h-2V2h2zM4 7v2H2V7h2zm5 0v2H7V7h2zm5 0h-2v2h2V7zM4 12v2H2v-2h2zm5 0v2H7v-2h2zm5 0v2h-2v-2h2zM12 1a1 1 0 0 0-1 1v2a1 1 0 0 0 1 1h2a1 1 0 0 0 1-1V2a1 1 0 0 0-1-1h-2zm-1 6a1 1 0 0 1 1-1h2a1 1 0 0 1 1 1v2a1 1 0 0 1-1 1h-2a1 1 0 0 1-1-1V7zm1 4a1 1 0 0 0-1 1v2a1 1 0 0 0 1 1h2a1 1 0 0 0 1-1v-2a1 1 0 0 0-1-1h-2z"/> </g>
</svg>